<svg xmlns="http://www.w3.org/2000/svg" version="1.1" xmlns:xlink="http://www.w3.org/1999/xlink" xmlns:svgjs="http://svgjs.dev/svgjs" width="2000" height="909" viewBox="0 0 2000 909"><g transform="matrix(1,0,0,1,-1.2120687562480725,-0.7330274630042481)"><svg viewBox="0 0 396 180" data-background-color="#ffffff" preserveAspectRatio="xMidYMid meet" height="909" width="2000" xmlns="http://www.w3.org/2000/svg" xmlns:xlink="http://www.w3.org/1999/xlink"><g id="tight-bounds" transform="matrix(1,0,0,1,0.2399896137371229,0.14515395307014956)"><svg viewBox="0 0 395.52 179.70968906720157" height="179.70968906720157" width="395.52"><g><svg viewBox="0 0 395.52 179.70968906720157" height="179.70968906720157" width="395.52"><g><svg viewBox="0 0 395.52 179.70968906720157" height="179.70968906720157" width="395.52"><g id="textblocktransform"><svg viewBox="0 0 395.52 179.70968906720157" height="179.70968906720157" width="395.52" id="textblock"><g><svg viewBox="0 0 395.52 179.70968906720157" height="179.70968906720157" width="395.52"><g transform="matrix(1,0,0,1,0,0)"><svg width="395.52" viewBox="3.049999952316284 -41.5 99.68999481201172 45.29999923706055" height="179.70968906720157" data-palette-color="#edbbba"><path d="M7.3 3.8L7.3 3.8Q4.9 3.1 3.98 2.4 3.05 1.7 3.05 0.65L3.05 0.65Q3.05-0.15 3.5-1.6 3.95-3.05 4.83-5.03 5.7-7 6.93-9.4 8.15-11.8 9.7-14.55L9.7-14.55Q8.4-14.6 7.38-14.63 6.35-14.65 5.7-14.65L5.7-14.65Q6-15.4 7.4-15.95 8.8-16.5 11.1-16.9L11.1-16.9Q13.05-20.15 15.28-23.1 17.5-26.05 19.75-28.53 22-31 24.25-32.88 26.5-34.75 28.55-35.85L28.55-35.85Q28.6-36.2 28.63-36.45 28.65-36.7 28.65-36.8L28.65-36.8Q29.35-36.8 30.53-36.45 31.7-36.1 32.83-35.6 33.95-35.1 34.83-34.58 35.7-34.05 35.8-33.7L35.8-33.7Q34.15-30.8 32.55-25.03 30.95-19.25 29.9-11.2L29.9-11.2Q29.65-9.2 29.48-6.65 29.3-4.1 29.3-0.95L29.3-0.95Q29.3 0.15 29.3 1.3 29.3 2.45 29.4 3.7L29.4 3.7Q29.3 3.75 29.2 3.75 29.1 3.75 28.8 3.75L28.8 3.75Q28.1 3.75 27.18 3.53 26.25 3.3 25.38 2.98 24.5 2.65 23.88 2.25 23.25 1.85 23.1 1.55L23.1 1.55Q23.05 0.9 23.05 0.28 23.05-0.35 23.05-1.05L23.05-1.05Q23.05-4.15 23.28-7.35 23.5-10.55 24.05-13.95L24.05-13.95Q23.35-14 22.2-14.08 21.05-14.15 19.63-14.2 18.2-14.25 16.57-14.33 14.95-14.4 13.4-14.45L13.4-14.45Q12.2-12.2 11.15-9.98 10.1-7.75 9.35-5.5L9.35-5.5Q8.5-3.1 7.98-0.7 7.45 1.7 7.3 3.8ZM26.6-26.25L26.6-26.25Q26.8-26.95 27.08-28.18 27.35-29.4 27.6-30.75L27.6-30.75Q26.35-30.3 24.83-29.1 23.3-27.9 21.68-26.13 20.05-24.35 18.38-22.13 16.7-19.9 15.15-17.4L15.15-17.4Q19.35-17.75 24.7-17.85L24.7-17.85Q25.1-19.95 25.58-22.03 26.05-24.1 26.6-26.25ZM34.4-1L34.4-1Q34.65-2.45 35.27-4.83 35.9-7.2 36.75-9.88 37.6-12.55 38.55-15.25 39.5-17.95 40.4-20.1L40.4-20.1Q41.05-21.65 41.55-22.53 42.05-23.4 42.65-24L42.65-24Q43.35-23.9 44.1-23.65 44.85-23.4 45.55-23.05 46.25-22.7 46.8-22.33 47.35-21.95 47.65-21.6L47.65-21.6Q46.3-20 45.27-17.95 44.25-15.9 43.2-12.7L43.2-12.7Q45.9-15.1 47.97-17.3 50.05-19.5 51.85-22.2L51.85-22.2Q52.15-22.45 52.9-22.45L52.9-22.45Q53.6-22.45 54.25-22.23 54.9-22 55.15-21.6L55.15-21.6Q54.25-19.2 54.25-16.85L54.25-16.85Q54.25-14.65 54.9-13.55L54.9-13.55Q54.85-13.25 54.22-12.4 53.6-11.55 52.85-10.8L52.85-10.8Q51.5-11.5 50.45-12.73 49.4-13.95 48.9-15.4L48.9-15.4Q46.55-13.75 44.9-12.18 43.25-10.6 42.07-8.68 40.9-6.75 40.07-4.25 39.25-1.75 38.5 1.7L38.5 1.7Q38.05 1.65 37.42 1.38 36.8 1.1 36.17 0.7 35.55 0.3 35.05-0.15 34.55-0.6 34.4-1ZM56.05-8.8L56.05-8.8Q56.05-11.65 57.22-14.33 58.4-17 60.32-19.07 62.25-21.15 64.72-22.43 67.2-23.7 69.84-23.7L69.84-23.7Q72.45-23.7 73.84-22.4 75.25-21.1 75.25-18.7L75.25-18.7Q75.25-17.55 74.92-16.48 74.59-15.4 74.07-14.55 73.55-13.7 72.84-13.18 72.15-12.65 71.45-12.65L71.45-12.65Q70.84-12.65 70.22-13.03 69.59-13.4 69.2-14L69.2-14Q72.55-17.05 72.55-19.55L72.55-19.55Q72.55-21 71.4-21L71.4-21Q70.4-21 68.9-20.05 67.4-19.1 66-17.55L66-17.55Q63.85-15.15 62.72-12.23 61.6-9.3 61.6-6.1L61.6-6.1Q61.6-2.05 63.4-1.25L63.4-1.25Q64.15-1.35 65.15-1.7 66.15-2.05 67.3-2.63 68.45-3.2 69.67-3.95 70.9-4.7 72.05-5.55L72.05-5.55Q72.25-5.4 72.4-5.1 72.55-4.8 72.55-4.55L72.55-4.55Q71.7-3.5 70.59-2.5 69.5-1.5 68.3-0.68 67.09 0.15 65.97 0.73 64.84 1.3 64 1.45L64 1.45Q62.35 1.3 60.9 0.43 59.45-0.45 58.37-1.85 57.3-3.25 56.67-5.05 56.05-6.85 56.05-8.8ZM76.69-0.85L76.69-0.85Q76.69-2.6 77.04-4.98 77.39-7.35 78.07-10.05 78.74-12.75 79.67-15.7 80.59-18.65 81.74-21.6L81.74-21.6Q82.74-24.25 84.07-26.95 85.39-29.65 86.94-32.25 88.49-34.85 90.17-37.2 91.84-39.55 93.54-41.5L93.54-41.5Q94.34-41.5 95.27-41.3 96.19-41.1 97.07-40.78 97.94-40.45 98.67-40 99.39-39.55 99.84-39.1L99.84-39.1Q96.09-35.25 93.09-31.33 90.09-27.4 88.34-23.95L88.34-23.95Q87.39-22.05 86.62-20.4 85.84-18.75 85.19-17.13 84.54-15.5 84.02-13.88 83.49-12.25 83.04-10.45L83.04-10.45Q92.64-22.7 97.29-22.7L97.29-22.7Q98.59-22.7 100.09-21.85 101.59-21 102.74-19.55L102.74-19.55Q101.19-17.85 99.54-15.45 97.89-13.05 96.52-10.63 95.14-8.2 94.27-6.13 93.39-4.05 93.39-3.05L93.39-3.05Q93.39-2.55 93.54-2.38 93.69-2.2 94.19-2.2L94.19-2.2Q94.94-2.2 95.39-2.4 95.84-2.6 95.94-2.6L95.94-2.6Q96.19-2.2 96.24-2.05 96.29-1.9 96.29-1.8L96.29-1.8Q96.29-1.6 95.69-1.23 95.09-0.85 94.27-0.48 93.44-0.1 92.64 0.2 91.84 0.5 91.44 0.5L91.44 0.5Q90.94 0.5 90.44 0.23 89.94-0.05 89.57-0.5 89.19-0.95 88.97-1.5 88.74-2.05 88.74-2.65L88.74-2.65Q88.74-3.4 89.17-4.88 89.59-6.35 90.34-8.33 91.09-10.3 92.14-12.65 93.19-15 94.39-17.45L94.39-17.45Q94.39-17.65 94.19-17.65L94.19-17.65Q94.04-17.65 93.42-17.25 92.79-16.85 92.24-16.45L92.24-16.45Q90.44-15.1 88.62-13.13 86.79-11.15 85.07-8.8 83.34-6.45 81.82-3.83 80.29-1.2 79.19 1.45L79.19 1.45Q79.04 1.8 78.74 2.1 78.44 2.4 78.24 2.4L78.24 2.4Q78.09 2.4 77.82 2.05 77.54 1.7 77.32 1.18 77.09 0.65 76.89 0.1 76.69-0.45 76.69-0.85Z" opacity="1" transform="matrix(1,0,0,1,0,0)" fill="#edbbba" class="wordmark-text-0" data-fill-palette-color="primary" id="text-0"></path></svg></g></svg></g></svg></g></svg></g></svg></g><defs></defs></svg><rect width="395.52" height="179.70968906720157" fill="none" stroke="none" visibility="hidden"></rect></g></svg></g></svg>